<?xml version="1.0" standalone="no"?>
<!DOCTYPE svg PUBLIC "-//W3C//DTD SVG 20010904//EN"
 "http://www.w3.org/TR/2001/REC-SVG-20010904/DTD/svg10.dtd">
<svg version="1.0" xmlns="http://www.w3.org/2000/svg"
 width="1280.000000pt" height="720.000000pt" viewBox="0 0 1280.000000 720.000000"
 preserveAspectRatio="xMidYMid meet">

<g transform="translate(0.000000,720.000000) scale(0.100000,-0.100000)"
fill="#000000" stroke="none">
<path d="M8100 6794 c-102 -80 -139 -134 -140 -202 -1 -109 313 -200 463 -133
89 39 158 43 334 21 87 -11 174 -25 193 -29 19 -5 61 -15 92 -21 104 -21 114
-61 40 -157 -45 -57 -50 -61 -65 -46 -9 9 -28 16 -44 15 -55 -1 -81 -19 -108
-73 -40 -77 -66 -99 -118 -99 -31 0 -56 -8 -81 -25 -51 -35 -199 -60 -461 -79
-117 -9 -232 -23 -260 -32 -58 -18 -167 -20 -209 -5 -30 12 -226 2 -406 -19
-144 -18 -431 -80 -486 -106 -28 -13 -61 -24 -73 -24 -21 0 -43 -29 -93 -119
-9 -17 -33 -38 -52 -48 -24 -11 -36 -24 -36 -37 -1 -28 -28 -60 -67 -80 -23
-11 -47 -42 -84 -104 -28 -48 -69 -106 -91 -128 -37 -39 -40 -47 -50 -125 -10
-83 -79 -375 -96 -405 -7 -12 -12 2 -21 47 -38 196 -118 529 -157 649 l-44
138 -107 138 c-138 180 -179 226 -288 321 -214 188 -235 203 -395 280 -185 90
-258 114 -366 117 -50 2 -92 10 -113 20 -49 26 -118 30 -206 13 -44 -9 -105
-19 -135 -22 -34 -4 -70 -17 -95 -33 -29 -19 -59 -28 -107 -33 -55 -5 -77 -13
-120 -42 -29 -20 -72 -43 -95 -52 -30 -12 -49 -29 -67 -59 -28 -47 -163 -181
-226 -222 -23 -15 -48 -40 -56 -56 -8 -15 -34 -40 -57 -54 -64 -40 -157 -135
-157 -161 0 -34 -26 -140 -56 -223 -14 -41 -29 -110 -33 -152 -6 -68 -11 -82
-37 -110 -43 -47 -51 -71 -74 -228 -21 -146 -35 -195 -63 -219 -13 -10 -17
-31 -17 -85 0 -104 -17 -192 -51 -263 -27 -57 -29 -65 -15 -79 35 -34 38 -55
31 -178 -4 -74 -2 -147 4 -188 46 -282 65 -1134 38 -1648 -17 -305 -12 -484
19 -690 15 -105 13 -179 -7 -272 -8 -34 -8 -98 0 -219 13 -193 2 -428 -28
-660 -10 -74 -16 -139 -14 -146 5 -13 21 -20 86 -38 47 -12 48 -12 68 16 11
15 29 48 40 73 18 43 19 48 4 76 -14 28 -15 50 -5 198 6 92 15 237 19 322 8
154 24 230 67 312 17 33 16 33 55 13 29 -16 30 -16 42 17 7 18 17 46 23 62 11
34 54 69 74 61 8 -3 26 -21 39 -41 49 -71 87 -62 61 16 -16 48 -8 73 22 68 17
-2 25 -14 34 -51 13 -52 20 -64 30 -54 4 4 -3 32 -15 63 -11 31 -21 57 -21 59
0 7 65 25 90 25 15 0 46 -15 71 -34 52 -39 129 -80 137 -72 3 3 -1 24 -8 46
-18 56 -8 63 79 58 63 -3 76 -8 130 -45 59 -41 60 -41 78 -21 11 13 26 18 42
15 17 -3 34 3 52 17 20 17 46 25 100 30 l74 7 28 -33 c16 -18 42 -59 58 -90
33 -66 82 -98 149 -98 38 0 40 2 40 30 0 39 -20 77 -59 114 -17 17 -31 35 -31
42 0 31 199 45 330 23 36 -6 139 -12 230 -14 104 -1 176 -7 195 -14 17 -7 104
-17 195 -21 91 -5 185 -13 210 -19 25 -5 86 -9 135 -8 74 1 98 -2 135 -20 65
-31 110 -36 203 -22 107 17 152 14 195 -11 30 -18 39 -19 64 -9 21 8 65 10
151 5 134 -7 156 -16 187 -73 l17 -31 39 18 c21 9 50 29 63 44 24 26 27 26
155 26 72 0 311 12 531 26 310 20 446 25 605 20 264 -7 281 -10 342 -75 44
-48 51 -51 95 -51 27 0 62 4 79 9 26 7 35 5 60 -18 170 -152 267 -446 319
-966 8 -82 20 -189 26 -237 l12 -86 33 -7 c42 -7 79 10 108 48 18 25 21 42 20
125 -1 53 -4 126 -7 162 -3 36 -8 99 -12 140 -3 41 -16 126 -29 188 -20 97
-21 114 -8 124 10 9 12 24 8 58 -3 25 -2 200 4 390 8 312 24 505 49 610 4 20
4 47 -1 60 -6 17 -4 37 8 68 11 30 14 56 9 85 -4 23 -11 170 -16 327 -5 157
-10 299 -11 315 -1 17 4 102 12 190 12 146 12 167 -4 240 -10 44 -17 85 -16
90 1 6 3 223 5 483 l4 472 -24 -6 c-14 -3 -25 -2 -25 4 0 13 -34 22 -49 13
-25 -16 -33 -88 -41 -361 -6 -172 -14 -301 -21 -325 -7 -23 -11 -81 -10 -136
3 -128 -14 -176 -124 -342 -89 -134 -90 -134 -144 -151 -29 -9 -66 -26 -82
-37 -15 -11 -48 -28 -72 -39 -38 -17 -52 -18 -108 -9 -35 6 -111 9 -169 8
-100 -3 -107 -2 -147 24 -24 15 -43 32 -43 38 0 8 -4 8 -13 1 -7 -6 -22 -9
-33 -6 -13 3 -30 -6 -53 -30 -41 -43 -69 -45 -163 -16 -83 26 -140 21 -177
-14 -25 -24 -31 -25 -59 -15 -35 12 -131 8 -272 -11 -114 -15 -145 -8 -243 56
-46 29 -98 57 -115 60 l-32 7 0 -47 c0 -52 -10 -60 -71 -60 -27 -1 -50 10 -90
41 -62 47 -134 85 -143 76 -10 -10 -7 -52 5 -74 9 -17 5 -22 -28 -35 -63 -27
-123 -15 -204 41 -38 26 -80 61 -94 77 -21 25 -34 31 -75 33 -46 4 -50 2 -56
-21 -4 -14 -1 -37 5 -50 6 -14 11 -36 11 -48 0 -23 -4 -24 -92 -31 -108 -9
-109 -8 -129 93 -18 94 -15 210 9 402 29 235 34 308 23 365 -8 45 -7 52 15 78
36 43 32 108 -16 252 -53 157 -53 195 0 282 21 36 51 97 66 135 16 39 40 79
55 93 l28 23 58 -18 c48 -15 63 -16 88 -6 27 11 30 17 31 58 1 58 19 103 50
123 37 24 54 19 54 -16 0 -49 43 -83 123 -99 44 -8 67 -17 67 -26 0 -12 48
-44 66 -44 3 0 3 15 0 33 -4 17 -8 43 -9 56 -1 13 -19 41 -41 62 -31 31 -36
42 -27 53 20 24 100 15 141 -15 19 -15 59 -34 89 -42 l55 -16 35 31 c20 17 43
41 51 53 14 20 18 20 55 9 56 -17 130 -17 254 2 119 18 199 14 252 -11 36 -17
37 -17 100 13 56 26 85 32 239 47 211 20 324 39 450 75 52 15 113 31 135 34
81 14 134 38 190 87 32 28 82 64 111 80 36 21 64 47 89 84 19 30 44 57 56 60
11 4 57 43 103 88 92 91 158 193 202 313 25 69 26 78 15 133 -7 37 -9 103 -5
182 8 152 -3 203 -48 227 -85 47 -92 55 -100 110 -14 97 -63 165 -189 263 -46
35 -112 91 -146 123 -61 57 -65 59 -121 60 -45 2 -70 9 -116 35 -44 26 -73 35
-124 38 -44 4 -74 12 -87 23 -26 22 -69 33 -120 30 -81 -6 -261 -5 -305 2 -41
7 -49 4 -90 -28z m-3584 -489 c4 -10 20 -15 45 -15 l39 0 0 -57 c0 -44 3 -54
12 -45 19 19 26 15 52 -27 22 -35 24 -43 13 -70 -13 -37 -1 -51 44 -51 31 0
48 -18 82 -86 15 -28 33 -54 42 -57 8 -4 15 -13 15 -22 0 -33 42 -96 85 -127
24 -18 44 -40 45 -49 0 -21 18 -36 52 -44 22 -6 29 -14 34 -44 15 -91 35 -125
176 -292 92 -109 97 -117 91 -152 -7 -48 3 -87 25 -87 15 0 62 -55 62 -73 0
-12 -73 -7 -113 7 -50 18 -139 80 -181 127 -31 35 -39 39 -83 39 -37 0 -58 6
-83 25 -19 14 -43 25 -54 25 -27 0 -80 99 -79 146 1 22 -4 34 -12 34 -19 0
-46 43 -80 125 -37 90 -53 115 -82 126 -13 5 -23 15 -23 24 0 20 -19 19 -58
-5 -39 -24 -36 -32 33 -110 25 -28 45 -54 45 -59 0 -4 13 -22 30 -41 16 -18
35 -49 41 -69 16 -50 37 -72 64 -65 19 5 21 2 17 -24 -3 -20 6 -47 28 -85 17
-31 30 -67 28 -79 -3 -20 -8 -23 -40 -20 -20 2 -50 -4 -69 -13 -31 -17 -33
-16 -48 4 -15 19 -23 21 -74 15 -52 -6 -63 -4 -121 25 l-63 33 -7 66 c-3 37
-6 91 -6 120 0 46 -4 58 -29 83 -16 16 -34 29 -39 29 -16 0 -1 -44 21 -61 17
-14 18 -20 8 -52 -13 -38 -53 -77 -78 -77 -8 0 -12 4 -9 9 3 5 -12 20 -34 35
-34 22 -40 32 -40 61 0 19 -6 38 -14 42 -7 4 -15 29 -18 54 -4 38 -16 58 -71
124 -71 85 -84 107 -119 200 -19 49 -30 63 -58 77 -52 25 -60 35 -60 76 1 99
69 164 151 142 45 -12 59 -7 59 21 0 18 4 20 33 14 49 -10 80 -38 98 -88 22
-62 48 -92 187 -219 85 -78 120 -104 129 -97 14 13 7 35 -23 72 -13 15 -42 63
-64 105 -22 42 -62 104 -89 137 -51 62 -95 141 -106 187 -7 26 -4 28 57 46 79
25 176 29 184 7z m335 -11 c4 -2 10 -15 13 -29 4 -14 25 -63 47 -109 22 -46
42 -106 46 -134 4 -34 11 -52 19 -52 20 0 109 -59 109 -72 0 -6 -13 -19 -30
-28 -16 -10 -29 -25 -29 -34 3 -27 -11 -19 -81 51 -66 65 -67 67 -62 110 4 42
2 48 -50 111 -63 76 -97 145 -88 180 5 21 9 23 53 16 26 -3 50 -8 53 -10z
m384 -115 c40 -18 74 -42 90 -64 15 -19 65 -60 112 -92 84 -56 153 -135 153
-175 0 -20 -32 -32 -65 -24 -30 8 -38 -4 -46 -79 -7 -53 -12 -64 -46 -93 l-38
-34 -3 27 c-2 16 -13 30 -28 37 -19 9 -24 19 -24 49 0 23 -5 39 -15 42 -16 7
-55 78 -55 103 0 31 -43 92 -91 129 -41 31 -48 41 -43 61 4 15 -2 36 -15 57
-21 34 -27 77 -14 91 10 10 56 -2 128 -35z m3845 -154 c19 -14 44 -25 57 -25
16 0 23 -6 23 -19 0 -41 11 -51 56 -51 46 0 47 -1 56 -65 4 -25 46 -33 54 -11
3 9 16 16 29 16 41 0 50 -25 50 -134 0 -91 -3 -107 -29 -159 -15 -32 -35 -61
-43 -64 -21 -8 -71 44 -105 112 -46 90 -65 113 -112 134 -55 24 -64 38 -32 51
43 16 34 52 -29 120 -58 63 -61 70 -45 101 14 25 29 24 70 -6z m-107 -101 c37
-35 38 -37 35 -105 -1 -39 -6 -69 -12 -69 -6 0 -28 19 -48 41 -33 36 -38 48
-38 89 0 50 7 80 19 80 3 0 23 -16 44 -36z m-5102 -188 c14 -85 16 -92 45
-104 48 -23 57 -12 16 18 -23 17 -42 36 -42 43 0 22 45 92 61 95 17 3 30 -36
44 -123 9 -56 20 -72 64 -94 32 -17 42 -30 59 -78 12 -32 27 -80 33 -107 9
-36 24 -62 56 -93 27 -28 43 -52 43 -68 0 -15 12 -36 30 -52 25 -22 30 -34 28
-62 -3 -40 -18 -47 -74 -37 -28 6 -37 14 -54 52 -11 26 -47 77 -80 114 -33 37
-60 74 -60 82 0 26 -22 78 -32 78 -19 0 -3 -108 20 -140 12 -16 22 -41 22 -55
0 -14 7 -39 15 -55 10 -19 11 -31 5 -35 -15 -10 -37 11 -45 43 -8 32 -33 62
-51 62 -7 0 -18 16 -24 35 -20 60 -94 148 -195 233 -54 45 -102 82 -107 82 -4
0 -8 -9 -8 -20 0 -11 18 -31 45 -50 31 -22 48 -41 52 -61 5 -27 45 -69 87 -94
10 -6 22 -28 26 -50 27 -126 44 -161 84 -167 18 -3 21 -11 24 -55 4 -67 -20
-96 -76 -91 -35 3 -39 7 -69 71 -18 37 -37 67 -43 67 -14 0 -13 -43 2 -58 9
-9 6 -17 -12 -37 -13 -14 -26 -25 -29 -25 -3 0 -15 21 -25 46 -10 25 -49 83
-86 128 -37 44 -70 93 -74 109 -4 17 -25 41 -56 63 -56 40 -58 47 -34 138 36
140 120 257 273 379 l74 59 29 -62 c16 -34 34 -90 39 -124z m4806 126 c7 -5
20 -31 28 -59 16 -55 51 -107 66 -98 5 4 9 19 9 36 0 21 5 29 18 29 44 0 64
-15 99 -73 21 -34 65 -95 98 -137 78 -96 121 -159 145 -213 23 -50 16 -56 -57
-47 -44 5 -47 7 -57 44 -9 32 -18 41 -46 51 -19 6 -36 18 -37 26 -9 71 -17 91
-54 133 -22 25 -53 55 -70 66 l-29 21 6 -33 c6 -31 23 -82 39 -121 12 -29 -19
-10 -39 23 -9 17 -23 30 -31 30 -20 0 -75 49 -75 68 0 32 -16 45 -38 33 -21
-11 -21 -12 -3 -44 11 -17 29 -60 41 -95 13 -35 33 -71 44 -80 12 -9 28 -32
35 -50 14 -33 89 -106 127 -124 30 -14 44 -118 18 -133 -10 -5 -34 -25 -55
-43 -46 -41 -62 -38 -124 23 -40 39 -45 48 -45 88 0 37 -5 49 -25 65 -14 11
-25 25 -25 31 0 6 -13 23 -30 38 -16 14 -30 35 -30 45 0 10 -4 18 -10 18 -5 0
-22 19 -37 43 -15 23 -34 48 -42 55 -9 7 -14 25 -13 41 2 20 -5 39 -26 62 -54
63 -62 82 -61 134 1 27 4 61 8 75 8 25 8 24 26 -13 11 -21 28 -40 40 -43 11
-3 27 -22 37 -44 19 -46 25 -48 62 -19 33 26 29 56 -15 106 -30 35 -38 78 -16
86 20 9 131 7 144 -1z m-3421 -166 c24 -72 48 -117 78 -145 15 -14 26 -36 26
-50 0 -15 20 -51 45 -85 24 -32 42 -63 39 -67 -3 -5 -16 -9 -30 -9 -19 0 -24
5 -24 27 0 31 -26 63 -50 63 -12 0 -20 11 -24 31 -8 41 -50 124 -82 162 -33
40 -50 83 -58 148 l-7 54 35 -39 c19 -21 43 -61 52 -90z m3049 40 c3 -34 8
-73 11 -88 5 -24 2 -28 -18 -28 -47 1 -70 24 -73 71 -2 48 6 71 38 107 26 28
33 18 42 -62z m-356 56 c54 -7 55 -7 82 -62 19 -36 28 -70 28 -100 0 -39 -2
-42 -10 -21 -5 13 -26 46 -46 73 -31 43 -39 49 -62 43 -37 -9 -59 -33 -72 -75
-10 -33 -9 -41 9 -66 29 -39 73 -162 62 -169 -5 -3 -27 -1 -48 5 -38 10 -40
13 -62 83 -31 100 -45 124 -83 143 -38 20 -48 33 -41 55 2 9 -7 30 -21 47 -14
16 -25 32 -25 35 0 15 189 20 289 9z m-515 -22 c5 -5 11 -28 12 -51 1 -24 11
-54 24 -71 17 -23 20 -38 15 -65 -5 -30 -1 -42 36 -90 30 -41 43 -68 47 -101
3 -31 16 -60 37 -88 40 -52 51 -92 32 -111 -12 -12 -18 -6 -43 44 -21 43 -39
64 -69 80 -31 17 -39 27 -37 46 3 24 -32 79 -48 74 -13 -3 -190 284 -190 310
0 6 26 18 58 26 58 16 108 15 126 -3z m273 -243 c-1 -32 5 -42 35 -67 20 -16
39 -41 42 -55 5 -20 13 -25 36 -25 32 0 70 -42 70 -78 0 -31 48 -82 76 -82 20
0 29 -9 45 -47 36 -86 53 -115 93 -148 33 -29 42 -32 65 -24 50 19 91 54 106
93 18 45 21 39 -76 141 -58 62 -89 109 -77 120 2 2 26 -16 53 -41 116 -104
137 -118 174 -120 20 0 56 -6 81 -12 25 -7 62 -14 83 -17 33 -5 37 -9 37 -35
0 -23 9 -35 43 -58 23 -16 51 -39 61 -51 32 -35 9 -44 -111 -45 -88 -1 -130
-8 -228 -34 -80 -22 -153 -35 -221 -39 l-101 -6 -82 83 c-55 57 -81 90 -81
106 0 15 -33 65 -89 134 -85 105 -89 112 -88 158 1 38 -7 61 -35 108 -68 113
-71 122 -54 149 9 14 16 33 16 44 0 14 17 2 64 -47 57 -59 64 -71 63 -105z
m-641 129 c8 -14 14 -35 12 -48 -4 -28 -38 -38 -38 -11 0 10 -7 27 -15 37 -8
11 -15 26 -15 33 0 22 39 14 56 -11z m-1459 -43 c75 -51 117 -117 193 -301 69
-168 85 -198 140 -256 39 -42 49 -60 55 -101 4 -27 18 -98 31 -157 25 -109 33
-258 14 -258 -15 0 -67 77 -81 118 -19 61 -55 125 -84 152 -33 31 -49 61 -64
125 -7 28 -21 66 -31 85 -10 19 -21 51 -24 71 -4 20 -18 47 -32 60 -36 33 -54
72 -54 113 0 19 -5 38 -11 42 -22 13 -51 93 -40 111 5 10 6 24 1 33 -19 36
-69 190 -61 190 4 0 26 -12 48 -27z m1303 -65 c0 -45 -8 -43 -34 6 -19 37 -11
60 15 45 14 -7 19 -21 19 -51z m-80 -67 c15 -11 33 -42 46 -80 12 -35 36 -77
53 -95 25 -26 31 -40 31 -74 0 -51 22 -108 56 -143 l25 -26 -17 -61 -17 -62
-18 53 c-12 35 -28 60 -51 77 -18 14 -61 52 -95 84 -58 55 -63 62 -63 102 0
24 -9 67 -20 96 -22 59 -25 94 -10 133 11 29 34 28 80 -4z m320 -30 c13 -24
13 -81 1 -81 -10 0 -15 13 -26 68 -7 36 8 44 25 13z m157 -13 c11 -13 28 -38
37 -56 10 -18 32 -42 50 -53 23 -14 36 -31 45 -62 18 -60 42 -95 132 -193 87
-96 95 -119 56 -168 l-23 -29 -39 41 c-55 60 -80 100 -129 204 -27 60 -61 113
-94 149 -31 34 -52 66 -52 80 -1 13 -7 35 -15 49 -31 54 -8 81 32 38z m-312
-10 c30 -13 47 -43 65 -106 9 -35 18 -46 44 -57 23 -10 37 -25 45 -47 6 -17
43 -73 81 -123 39 -52 70 -101 70 -114 0 -13 11 -36 25 -53 30 -36 33 -68 6
-68 -10 0 -24 7 -31 15 -7 8 -23 15 -35 15 -46 0 -118 99 -190 260 -21 48 -62
103 -87 116 -14 7 -17 14 -9 18 16 10 14 60 -4 103 -24 56 -22 60 20 41z m990
-49 c11 -17 -1 -21 -15 -4 -8 9 -8 15 -2 15 6 0 14 -5 17 -11z m-2437 -236
c50 -90 101 -213 87 -213 -8 0 -148 204 -161 235 -8 19 -14 60 -14 92 l1 58
14 -32 c7 -18 41 -81 73 -140z m1046 142 c4 -14 20 -46 36 -72 26 -40 30 -54
24 -88 -6 -40 -5 -41 40 -61 42 -20 44 -20 35 -3 -5 10 -16 22 -23 26 -14 8
-28 153 -15 153 11 0 118 -120 133 -148 29 -56 55 -212 36 -212 -5 0 -10 6
-10 14 0 8 -3 17 -8 19 -12 8 -125 -43 -165 -75 -46 -36 -82 -32 -130 16 -35
34 -112 212 -96 221 5 3 24 3 44 -1 30 -5 35 -10 35 -33 0 -28 21 -53 71 -83
l25 -16 -30 61 c-19 38 -43 69 -63 82 -37 23 -47 56 -37 122 11 77 84 135 98
78z m-3070 -107 c8 -23 20 -36 41 -43 26 -9 30 -15 30 -45 0 -27 5 -37 23 -45
13 -6 22 -19 22 -31 0 -12 8 -32 19 -45 23 -30 51 -84 51 -100 0 -17 -102 -6
-134 14 -21 14 -26 26 -26 56 0 26 -14 69 -40 122 -38 79 -52 153 -33 173 10
10 36 -20 47 -56z m-105 -39 c29 -39 48 -92 69 -186 6 -24 6 -43 1 -43 -18 0
-119 135 -125 167 -7 39 3 103 16 103 6 0 23 -18 39 -41z m1541 -142 c38 -17
67 -44 84 -80 6 -12 40 -37 75 -56 51 -27 68 -31 80 -22 9 6 27 16 39 21 13 6
26 19 29 29 4 15 10 17 37 11 42 -9 61 -20 187 -106 65 -44 123 -76 146 -80
21 -3 43 -9 50 -13 21 -11 215 -236 251 -291 61 -94 102 -201 123 -326 10 -63
30 -168 43 -232 28 -136 52 -287 61 -387 5 -55 3 -79 -11 -110 -19 -46 -22
-150 -10 -340 4 -66 4 -138 -1 -160 -8 -37 -11 -40 -46 -43 -27 -2 -51 4 -84
24 -43 25 -48 26 -87 13 -23 -8 -96 -15 -166 -16 -69 -2 -143 -3 -165 -4 -22
-1 -83 2 -135 5 -84 5 -97 9 -110 29 -22 33 -61 67 -76 67 -15 0 -43 -26 -59
-54 -10 -17 -16 -16 -98 9 -101 32 -142 56 -175 105 -30 45 -46 53 -85 46
l-32 -6 0 -81 c0 -78 -1 -82 -25 -91 -14 -5 -65 -8 -113 -6 l-88 3 -40 43
c-42 46 -76 53 -71 16 1 -11 -8 -36 -20 -54 l-24 -35 -109 1 c-99 0 -114 3
-146 24 -20 13 -48 43 -62 66 -18 30 -34 44 -57 49 -17 4 -33 5 -35 3 -2 -2 2
-33 9 -68 8 -36 13 -66 12 -67 -1 -1 -56 1 -123 6 -128 8 -173 23 -173 60 0
27 -46 78 -90 101 -31 16 -40 17 -55 6 -18 -13 -18 -14 0 -107 6 -32 5 -37
-16 -42 -13 -4 -48 -7 -76 -7 -50 0 -55 2 -95 47 -24 26 -60 64 -80 85 -37 37
-38 39 -38 115 0 64 -5 86 -29 137 -76 158 -66 659 21 1075 16 81 27 111 50
136 15 18 40 58 54 89 29 64 64 96 105 96 30 0 69 -40 69 -71 0 -26 38 -49 81
-49 32 0 37 3 42 27 3 17 -4 50 -19 85 -35 83 -33 90 34 116 71 27 102 28 135
2 22 -18 26 -18 38 -4 7 9 12 37 12 63 l-1 46 65 33 66 33 21 -20 c34 -32 95
-53 132 -47 41 8 57 28 58 74 l1 37 65 17 c100 26 101 25 138 -43 35 -64 79
-99 123 -99 44 0 65 77 45 159 l-8 33 158 -4 c116 -3 169 -9 194 -21z m1477
-69 c40 -44 63 -93 63 -135 0 -49 -9 -57 -56 -48 -64 11 -95 105 -59 175 19
36 25 37 52 8z m-3063 -142 l18 -66 -24 -19 c-13 -11 -37 -39 -52 -64 -26 -41
-81 -85 -92 -74 -3 3 2 29 11 59 9 29 20 77 25 106 5 29 21 79 35 110 26 57
27 57 44 36 10 -12 26 -52 35 -88z m5940 -1950 c10 -71 12 -115 6 -149 -16
-81 -29 -87 -60 -27 -13 26 -27 40 -40 40 -21 0 -37 38 -26 65 12 31 -10 13
-31 -25 -23 -43 -22 -56 11 -132 19 -45 19 -48 4 -48 -7 0 -30 19 -51 42 l-38
41 -27 -26 c-33 -31 -44 -33 -67 -11 -12 12 -14 27 -9 60 6 40 4 44 -15 44
-11 0 -21 4 -21 9 0 16 71 63 123 82 29 10 63 32 77 48 14 16 40 32 58 36 29
6 37 15 55 58 21 50 21 50 29 22 4 -16 14 -74 22 -129z m-5969 -89 c19 -47 52
-87 72 -87 7 0 13 -9 13 -20 0 -33 20 -66 52 -84 21 -13 27 -23 23 -34 -20
-51 -17 -81 15 -141 18 -34 37 -61 41 -61 12 0 11 37 -1 45 -15 9 -12 45 3 45
7 0 27 -13 45 -30 18 -16 42 -30 52 -30 13 0 22 -9 26 -27 3 -16 9 -38 14 -50
15 -35 210 -243 235 -249 17 -4 26 -19 39 -67 10 -34 31 -84 47 -110 16 -27
32 -68 36 -92 7 -56 -4 -115 -22 -115 -38 0 -134 47 -172 84 -50 49 -126 106
-141 106 -19 0 0 -74 25 -97 25 -24 26 -27 17 -60 -12 -44 -79 -26 -149 38
-49 45 -57 44 -23 -3 l22 -31 -28 -24 c-41 -35 -51 -29 -66 33 -15 60 -48 119
-65 116 -11 -2 -11 -48 0 -159 l8 -73 -30 0 c-20 0 -41 -12 -71 -40 -26 -25
-51 -40 -67 -40 -14 0 -25 3 -26 8 0 4 -4 54 -9 112 -18 202 -22 305 -12 345
l10 40 23 -52 c25 -57 33 -62 61 -36 17 15 21 15 29 3 5 -8 8 -28 7 -45 -3
-28 -1 -30 35 -33 l38 -3 -27 53 c-43 85 -93 160 -138 206 l-41 43 0 132 c1
73 2 168 4 212 2 44 0 103 -4 132 -6 46 14 176 31 205 10 16 53 -24 69 -65z
m1896 -24 c11 -27 40 -88 65 -138 51 -103 59 -159 22 -153 -14 2 -24 12 -28
28 -4 18 -14 26 -32 28 -21 2 -27 10 -31 37 -3 19 -24 65 -46 103 -47 78 -50
104 -19 126 35 25 48 19 69 -31z m-1563 0 c13 -8 32 -36 43 -61 10 -26 35 -77
54 -114 19 -37 32 -74 29 -83 -4 -10 6 -28 30 -50 28 -26 36 -42 36 -68 0 -25
15 -57 56 -118 48 -73 54 -79 49 -49 -9 47 -34 98 -55 113 -10 7 -20 32 -23
60 -4 28 -30 94 -62 159 -46 90 -55 118 -53 152 l3 41 77 -90 c43 -49 92 -116
109 -148 17 -33 49 -75 71 -95 25 -23 53 -64 73 -107 28 -61 86 -135 106 -135
3 0 9 -18 13 -41 5 -28 18 -53 47 -82 89 -93 159 -195 173 -255 9 -42 19 -60
35 -69 23 -11 23 -11 3 -22 -12 -6 -41 -14 -66 -17 -37 -5 -53 -2 -89 19 -24
14 -55 43 -69 64 -14 21 -48 63 -76 94 -35 38 -59 77 -77 125 -28 75 -74 149
-109 175 -21 16 -21 16 -18 -20 2 -20 -3 -44 -11 -55 -12 -17 -16 -15 -48 35
-19 30 -60 86 -91 125 -31 40 -66 91 -79 115 -12 24 -49 87 -82 139 -52 82
-137 245 -137 264 0 3 10 6 23 6 12 0 29 5 37 10 17 11 44 5 78 -17z m1897 15
c19 -9 40 -39 74 -108 42 -85 46 -99 38 -131 -12 -43 6 -89 40 -104 17 -7 21
-15 17 -32 -4 -16 2 -32 20 -54 29 -34 33 -49 12 -49 -40 0 -76 43 -76 90 0
16 -11 26 -40 38 -32 14 -40 22 -40 44 0 43 -17 77 -67 132 -46 51 -82 116
-83 149 0 31 60 46 105 25z m-1468 -50 c17 -29 39 -75 49 -101 17 -43 106
-165 92 -126 -19 52 -57 180 -62 213 l-7 39 33 -20 c19 -11 36 -31 41 -49 24
-82 101 -185 126 -170 27 17 -2 86 -36 86 -7 0 -13 11 -13 25 0 14 -9 43 -20
65 -27 52 -25 68 8 81 40 16 109 6 180 -26 60 -27 62 -29 62 -66 0 -26 8 -47
25 -66 30 -34 30 -27 5 65 -11 39 -20 74 -20 77 0 3 15 5 33 5 76 0 173 -109
207 -233 11 -43 28 -90 37 -105 27 -43 128 -164 163 -197 45 -41 132 -178 186
-290 45 -95 92 -149 139 -161 14 -3 22 -11 19 -16 -4 -6 -7 -20 -8 -31 -1 -12
-16 -31 -35 -44 -30 -20 -35 -21 -54 -8 -14 10 -46 15 -93 15 l-73 0 -24 53
c-13 29 -51 85 -85 125 -57 68 -71 95 -86 165 -4 16 -12 27 -19 24 -21 -7 -20
-38 3 -62 12 -13 23 -38 23 -56 2 -27 -3 -35 -28 -48 -16 -9 -31 -16 -32 -17
-1 0 2 -17 8 -37 11 -42 34 -68 53 -61 7 3 18 -7 24 -21 16 -36 15 -45 -6 -45
-11 0 -27 -9 -37 -20 -23 -25 -30 -25 -63 1 -23 17 -35 20 -79 14 -66 -8 -96
10 -119 73 -19 51 -47 89 -74 97 -13 4 -19 21 -23 62 -5 46 -16 70 -61 139
-44 65 -56 92 -56 122 0 44 -14 62 -48 62 -17 0 -22 -4 -18 -17 2 -10 8 -33
11 -52 4 -19 20 -45 36 -59 16 -13 29 -32 29 -43 0 -10 -1 -19 -3 -19 -1 0
-17 -4 -35 -9 -29 -9 -31 -8 -22 9 13 25 17 18 -45 83 -43 44 -55 64 -55 89 0
35 -35 88 -120 182 -31 34 -69 78 -84 100 -29 39 -106 201 -106 223 0 14 50
31 95 32 27 1 35 -6 62 -51z m780 37 c12 -8 42 -67 73 -145 37 -91 60 -136 79
-150 14 -11 32 -25 39 -30 6 -6 12 -31 12 -55 0 -39 3 -45 21 -45 17 0 20 -4
15 -24 -4 -16 1 -32 15 -50 12 -15 16 -26 8 -26 -19 0 -76 39 -83 56 -4 11
-14 14 -35 9 -24 -5 -32 -2 -48 20 -10 15 -27 36 -38 48 -11 13 -19 36 -20 57
0 29 -5 37 -31 50 -28 13 -31 19 -27 47 6 36 -17 80 -66 127 -23 23 -31 39
-31 66 0 20 5 41 12 48 17 17 79 15 105 -3z m1001 -1 c26 -18 61 -85 87 -164
25 -75 67 -162 115 -240 22 -36 36 -66 31 -68 -6 -2 -30 8 -54 23 -37 21 -47
33 -56 70 -10 40 -79 136 -125 174 -45 37 -77 92 -86 147 -5 31 -7 61 -4 65 9
15 68 10 92 -7z m1075 -22 c9 -10 22 -34 28 -53 24 -71 55 -82 45 -16 -9 61 2
72 50 52 21 -9 53 -31 70 -50 25 -28 39 -35 68 -35 l36 0 0 -49 c0 -45 5 -56
50 -110 28 -33 50 -69 50 -79 0 -10 12 -29 26 -43 14 -13 35 -39 47 -59 30
-50 118 -149 138 -155 10 -4 19 -21 23 -46 7 -43 66 -116 131 -160 24 -17 37
-36 45 -67 15 -60 34 -87 84 -116 49 -28 126 -109 126 -131 0 -24 -41 -42
-108 -48 -34 -3 -69 -11 -77 -17 -12 -10 -18 -4 -35 34 -11 26 -51 80 -89 120
-43 45 -81 98 -100 137 -18 38 -63 101 -111 154 -51 58 -84 104 -91 128 -5 21
-32 62 -59 92 -34 38 -52 67 -56 92 -4 28 -23 56 -70 107 -46 51 -64 77 -64
97 0 17 -8 34 -22 43 -22 16 -58 22 -58 10 0 -10 23 -49 41 -69 9 -11 21 -33
24 -48 7 -28 7 -28 -39 -25 -43 3 -46 5 -46 30 0 20 -11 36 -42 60 -80 64 -98
85 -98 116 0 39 -23 57 -71 55 -35 -2 -37 0 -30 20 12 32 48 47 112 47 41 0
60 -5 72 -18z m1019 -9 c8 -10 20 -36 26 -59 8 -27 20 -45 36 -52 19 -9 24
-18 23 -48 -1 -27 5 -41 22 -55 49 -40 81 -14 59 47 -6 18 -9 36 -7 39 8 8
399 -386 399 -402 0 -30 30 -69 68 -91 24 -13 42 -32 46 -47 3 -13 34 -53 69
-87 40 -42 79 -96 112 -156 90 -167 109 -196 154 -230 l44 -33 28 27 c16 15
29 32 29 36 0 5 -24 38 -54 74 -29 35 -73 100 -96 144 -39 73 -117 163 -176
205 -15 10 -25 34 -34 80 -10 51 -18 70 -39 85 -14 11 -31 24 -37 29 -6 5 -16
37 -23 71 -11 54 -17 64 -46 81 -30 18 -33 24 -28 50 5 24 0 35 -31 63 -20 20
-34 41 -31 49 3 7 -12 36 -35 64 -22 28 -40 61 -40 73 0 19 4 21 28 15 51 -12
87 -40 87 -66 0 -17 18 -43 58 -82 31 -31 57 -64 57 -73 0 -23 114 -159 155
-184 19 -12 33 -25 30 -30 -10 -16 8 -41 42 -58 19 -10 44 -34 56 -54 30 -48
104 -144 147 -189 25 -26 53 -42 94 -54 31 -9 60 -15 62 -12 8 8 -27 119 -53
168 -13 25 -44 62 -68 82 -26 22 -61 68 -86 114 -24 43 -60 96 -80 118 -23 25
-39 55 -43 80 -10 56 -44 128 -56 120 -6 -4 -8 -24 -4 -48 l5 -42 -20 24 c-17
19 -21 37 -21 97 0 40 3 75 8 78 4 2 32 -11 62 -31 104 -66 223 -133 238 -133
8 0 37 -13 64 -30 32 -20 61 -30 87 -30 l39 0 7 -97 c12 -150 0 -346 -35 -606
-33 -236 -33 -238 -15 -291 12 -35 16 -64 11 -89 -8 -40 -52 -100 -68 -91 -5
3 -21 32 -35 64 -16 38 -30 57 -38 54 -7 -3 -16 4 -20 15 -4 13 -18 23 -40 27
-25 4 -40 16 -54 40 -27 46 -59 57 -166 60 l-90 3 -58 83 c-66 95 -100 133
-139 156 -19 11 -28 25 -28 42 0 18 -17 42 -56 80 -63 62 -108 143 -117 209
-3 27 -15 53 -30 70 -14 14 -31 45 -39 68 -8 23 -27 52 -42 64 -16 12 -35 38
-42 56 -15 34 -52 57 -78 47 -12 -5 -7 -21 25 -82 27 -53 37 -84 33 -99 -8
-30 -24 -29 -24 0 0 28 -27 55 -66 66 -24 6 -30 15 -37 49 -7 34 -16 48 -45
66 -50 32 -80 66 -151 170 -57 84 -60 91 -44 108 9 10 28 18 42 18 14 0 33 5
41 10 23 15 55 12 72 -7z m338 -13 c25 -27 94 -208 84 -219 -6 -7 -43 30 -65
65 -11 18 -33 37 -50 43 -25 9 -29 14 -23 35 4 18 0 33 -15 52 -30 38 -27 54
10 54 21 0 40 -9 59 -30z m352 5 c16 -14 35 -25 42 -25 8 0 16 -19 20 -48 4
-29 19 -67 39 -97 30 -45 61 -114 55 -121 -2 -1 -15 -5 -29 -9 -24 -6 -29 -1
-56 47 -17 29 -40 62 -52 72 -12 11 -21 31 -21 47 0 39 -14 72 -49 111 -17 20
-28 38 -24 42 13 13 46 5 75 -19z m-3595 -72 c37 -48 101 -122 141 -164 39
-41 72 -81 72 -89 0 -39 82 -174 174 -288 150 -186 186 -236 186 -259 0 -73
155 -127 175 -62 12 37 -4 66 -69 129 -50 48 -67 72 -76 107 -20 81 -56 157
-105 223 -26 36 -58 88 -70 115 -57 124 -136 327 -131 332 13 13 53 -28 65
-67 7 -25 32 -64 60 -94 56 -60 95 -116 142 -206 19 -35 57 -89 85 -120 34
-37 53 -67 58 -92 8 -46 42 -87 101 -125 40 -25 45 -32 45 -65 0 -29 6 -41 29
-57 43 -31 91 -111 84 -142 -3 -16 1 -30 11 -38 9 -8 16 -26 16 -41 0 -22 -7
-30 -32 -41 -28 -11 -38 -10 -92 11 -34 13 -74 23 -91 22 -16 0 -57 -2 -90 -3
-76 -3 -236 20 -240 35 -24 87 -131 270 -206 353 -22 23 -43 60 -49 85 -6 23
-14 51 -17 62 -3 10 -20 35 -38 55 -19 21 -39 60 -50 96 -21 76 -47 126 -95
186 -39 49 -63 110 -75 187 -4 26 -3 42 4 42 5 0 40 -39 78 -87z m1172 31 c65
-60 66 -62 76 -146 6 -54 5 -58 -15 -58 -15 0 -25 11 -35 35 -8 19 -24 39 -35
45 -12 6 -17 16 -13 26 4 10 -11 32 -42 64 -43 43 -46 49 -33 69 7 11 18 21
25 21 6 0 39 -25 72 -56z m288 45 c46 -17 90 -68 119 -138 15 -36 44 -90 63
-119 83 -123 160 -265 161 -294 0 -21 -32 -31 -71 -23 -20 5 -29 12 -28 23 3
34 -2 42 -31 57 -23 12 -30 22 -30 45 0 39 -56 101 -118 132 -32 16 -46 29
-44 40 2 11 -5 18 -20 20 -17 2 -24 11 -26 31 -3 20 -9 27 -25 27 -40 0 -50
15 -56 91 -4 42 -12 74 -19 77 -19 6 -14 22 11 32 31 12 80 12 114 -1z m798
-33 c18 -19 35 -50 39 -69 4 -19 13 -40 21 -47 19 -16 19 -54 1 -69 -11 -10
-17 -7 -30 11 -9 12 -16 27 -16 33 0 5 -13 37 -29 71 -39 82 -45 104 -30 104
6 0 26 -15 44 -34z m431 -139 c15 -17 33 -45 41 -62 7 -16 19 -38 26 -48 10
-16 8 -22 -16 -43 -36 -31 -43 -30 -50 5 -4 21 -23 43 -61 71 -52 39 -56 45
-70 110 -9 38 -16 74 -16 79 0 15 112 -71 146 -112z m-1006 51 c0 -4 18 -17
40 -28 23 -12 53 -39 68 -61 15 -22 45 -62 67 -87 22 -26 58 -72 79 -102 22
-30 63 -82 91 -115 28 -33 67 -86 86 -117 19 -31 41 -59 50 -61 9 -2 36 -32
59 -67 25 -37 53 -65 69 -71 20 -7 30 -20 38 -52 7 -25 35 -70 68 -110 52 -63
94 -136 95 -164 0 -7 -17 -11 -47 -10 -27 1 -71 -2 -98 -7 l-51 -8 -1 38 c-1
32 -8 44 -48 78 -25 23 -58 64 -73 91 -20 37 -35 52 -59 59 -28 9 -35 20 -67
100 -49 123 -128 269 -153 281 -38 20 -56 40 -76 85 -11 25 -33 60 -48 78 -16
18 -29 38 -29 45 0 7 -17 49 -39 92 -40 84 -65 179 -36 141 8 -11 15 -23 15
-28z m-903 -142 c62 -126 105 -183 156 -211 27 -14 37 -27 42 -54 9 -47 30
-86 76 -141 20 -25 63 -85 94 -135 32 -49 89 -120 126 -156 42 -40 69 -74 69
-87 0 -11 5 -24 11 -27 13 -9 -17 -44 -49 -56 -32 -12 -68 9 -120 70 -24 28
-49 51 -56 51 -7 0 -20 16 -29 35 -33 70 -141 243 -248 397 -86 123 -109 164
-109 191 0 25 -9 43 -42 75 -22 23 -45 42 -50 42 -22 0 1 85 35 128 16 20 34
-3 94 -122z m323 -12 c0 -7 11 -21 25 -30 13 -9 27 -26 31 -37 3 -12 25 -42
49 -67 24 -25 50 -59 59 -77 9 -18 35 -48 59 -68 24 -20 52 -51 62 -68 37 -62
138 -192 148 -189 20 6 59 -29 54 -49 -3 -12 4 -31 18 -47 38 -45 82 -125 96
-171 8 -27 20 -46 31 -49 10 -2 18 -8 18 -12 0 -23 -88 -27 -129 -5 -45 23
-112 106 -160 196 -24 47 -70 112 -103 147 -36 39 -75 97 -102 150 -24 48 -71
129 -105 180 -34 51 -61 98 -61 105 0 7 -9 30 -20 52 -26 52 -26 63 5 57 14
-2 25 -10 25 -18z m322 -34 c-2 -18 -10 -30 -19 -30 -13 0 -50 16 -62 26 -9 9
35 33 60 34 23 0 25 -3 21 -30z m-1067 -37 c-3 -16 -15 -37 -25 -47 -17 -18
-20 -18 -25 -4 -7 17 31 78 48 78 5 0 6 -12 2 -27z m2286 -64 c41 -47 116
-132 167 -190 51 -57 119 -141 149 -186 31 -45 60 -80 64 -77 5 3 13 23 19 44
12 43 20 49 40 25 10 -13 10 -23 -5 -55 l-18 -39 32 -40 c18 -22 40 -43 51
-46 10 -3 17 -12 14 -19 -3 -8 13 -28 35 -46 23 -17 41 -38 41 -46 0 -15 -8
-16 -125 -17 l-80 0 -45 89 c-59 117 -76 143 -104 154 -26 9 -150 199 -228
347 -36 68 -58 97 -84 112 -43 26 -53 49 -29 68 11 7 22 12 26 11 3 -2 39 -42
80 -89z m-1159 34 c14 -16 33 -43 42 -61 9 -18 28 -38 42 -44 14 -7 33 -31 45
-57 24 -54 51 -85 87 -101 19 -7 37 -31 59 -78 23 -51 54 -91 125 -162 59 -59
104 -115 121 -149 15 -30 43 -69 62 -86 40 -37 43 -50 15 -65 -15 -8 -33 -5
-81 15 -35 14 -68 25 -75 25 -7 0 -19 10 -25 23 -7 12 -33 42 -58 67 -26 26
-92 121 -151 219 -58 95 -142 221 -186 281 l-82 109 11 45 c6 25 13 46 17 46
3 0 18 -12 32 -27z m378 -295 c0 -15 -4 -28 -9 -28 -10 0 -21 35 -21 70 1 24
1 24 15 6 8 -11 15 -32 15 -48z m-2902 6 c14 -10 22 -25 22 -45 l0 -30 -30 21
c-19 14 -30 30 -30 46 0 28 7 30 38 8z m2968 -79 c10 -41 -3 -75 -29 -75 -20
0 -22 5 -21 53 0 28 1 56 2 60 4 16 42 -15 48 -38z"/>
<path d="M4190 5920 c0 -48 3 -60 16 -60 8 0 20 -13 25 -30 12 -34 29 -31 29
6 0 23 -55 144 -65 144 -3 0 -5 -27 -5 -60z"/>
<path d="M4937 5470 c-4 -14 4 -31 24 -52 l29 -32 -9 30 c-9 32 -29 74 -35 74
-2 0 -6 -9 -9 -20z"/>
<path d="M3971 5556 c-10 -12 -11 -22 -4 -39 6 -12 15 -34 22 -49 6 -16 18
-28 27 -28 19 0 14 28 -14 94 -16 35 -19 37 -31 22z"/>
<path d="M3635 5420 c-7 -11 64 -155 72 -146 3 3 -1 25 -10 48 -8 24 -18 58
-22 76 -6 31 -27 43 -40 22z"/>
<path d="M3713 5214 c-3 -10 4 -26 21 -42 l26 -27 0 27 c0 15 -7 34 -16 42
-19 20 -23 20 -31 0z"/>
<path d="M3327 2452 c-24 -27 -21 -61 12 -123 16 -30 34 -81 41 -114 22 -112
32 -142 61 -186 26 -40 29 -42 30 -19 2 49 -3 76 -22 113 -20 39 -25 82 -10
91 13 8 90 -93 103 -136 6 -22 24 -48 39 -59 15 -11 38 -36 50 -57 13 -20 33
-50 46 -65 l23 -29 0 30 c0 20 -8 35 -22 45 -15 9 -29 37 -42 81 -19 68 -68
156 -86 156 -5 0 -10 13 -10 29 0 42 -14 74 -59 134 -21 28 -45 69 -52 90 -12
34 -16 37 -49 37 -23 0 -43 -7 -53 -18z"/>
<path d="M4425 2441 c-3 -5 4 -12 15 -16 37 -12 70 -67 70 -118 0 -42 5 -53
48 -100 26 -29 55 -63 64 -77 17 -24 17 -25 17 -3 1 12 -4 25 -9 28 -6 4 -10
14 -8 24 1 9 -7 26 -20 39 -12 12 -22 31 -22 42 0 28 -44 96 -96 147 -45 46
-50 48 -59 34z"/>
<path d="M4310 2378 c0 -6 -15 -24 -32 -40 -27 -23 -29 -28 -12 -23 16 4 28
-1 42 -19 l19 -25 6 44 c4 25 4 51 1 60 -7 18 -24 20 -24 3z"/>
<path d="M4747 1990 c-43 -8 -60 -20 -29 -20 12 0 26 -9 32 -20 6 -11 8 -20 5
-20 -3 0 -1 -9 5 -20 6 -11 15 -20 19 -20 15 0 22 32 10 46 -6 8 -8 25 -5 39
4 14 5 24 4 24 -2 -1 -20 -5 -41 -9z"/>
<path d="M3715 1344 c16 -66 76 -109 90 -65 12 40 -24 87 -81 105 -20 6 -21 5
-9 -40z"/>
</g>
</svg>
